<?xml version="1.0" encoding="utf-8"?>
<!-- Generator: Adobe Illustrator 17.1.0, SVG Export Plug-In . SVG Version: 6.00 Build 0)  -->
<!DOCTYPE svg PUBLIC "-//W3C//DTD SVG 1.1//EN" "http://www.w3.org/Graphics/SVG/1.1/DTD/svg11.dtd">
<svg version="1.1" id="Layer_1" xmlns="http://www.w3.org/2000/svg" xmlns:xlink="http://www.w3.org/1999/xlink" x="0px" y="0px"
	 viewBox="0 0 5000 764" enable-background="new 0 0 5000 764" xml:space="preserve">
<g>
	<path fill="#FFFFFF" d="M1324.1,596l-0.9,0.4c-5.5-5-12-9.1-19.7-12.1c-7.7-3-16.1-4.5-25.3-4.5c-8.8,0-16.9,1.4-24.3,4.2
		c-7.4,2.8-13.7,6.8-19,12c-5.3,5.3-9.4,11.7-12.3,19.3c-2.9,7.6-4.4,16.3-4.4,26.1c0,10.7,1.4,20.7,4.2,30
		c2.8,9.3,7,17.3,12.5,24.1c5.5,6.8,12.4,12.1,20.8,16c8.3,3.9,18,5.8,29,5.8c4,0,8-0.4,12-1.3c4-0.8,7.8-2.1,11.5-3.7
		c3.7-1.6,7.1-3.6,10.4-6c3.3-2.3,6.2-5,8.9-8l1.2,0.7l-8.4,21.4c-5.3,2-11,3.6-17.4,4.7c-6.3,1.1-12.7,1.6-19.2,1.6
		c-13,0-24.8-1.9-35.6-5.6c-10.8-3.7-20-9.1-27.7-15.9c-7.7-6.9-13.8-15.1-18.1-24.7c-4.3-9.6-6.5-20.3-6.5-32.1
		c0-6.7,0.9-13.2,2.6-19.6c1.7-6.4,4.2-12.6,7.5-18.4c3.3-5.8,7.4-11.2,12.2-16c4.8-4.9,10.3-9.1,16.5-12.7c6.2-3.6,13-6.4,20.5-8.4
		c7.5-2,15.5-3,24.2-3c13.5,0,26.1,2.1,37.6,6.2L1324.1,596z"/>
	<path fill="#FFFFFF" d="M1423.4,715.3c6.5,0,12.5-0.3,18-0.8c5.5-0.5,10.3-1.1,14.4-1.7c4.8-0.8,9.2-1.6,13.1-2.6l-2.4,14
		c-1-0.1-2.6-0.2-5-0.3c-2.3-0.1-4.8-0.2-7.4-0.2c-2.6,0-5-0.1-7.2-0.1c-2.2,0-3.8,0-4.6,0h-40.2v-0.4c0.5-1.5,0.9-3.4,1.3-5.7
		c0.4-2.3,0.7-5.2,0.9-8.6c0.2-3.4,0.4-7.4,0.6-12.1c0.1-4.7,0.2-10.2,0.2-16.5v-26.5c0-6.3-0.1-11.8-0.2-16.4
		c-0.1-4.7-0.3-8.7-0.6-12.1c-0.2-3.4-0.6-6.2-0.9-8.6c-0.4-2.3-0.8-4.2-1.3-5.7v-0.4h24.3v0.4c-0.5,1.5-0.9,3.4-1.3,5.7
		c-0.4,2.3-0.6,5.2-0.9,8.6c-0.2,3.4-0.4,7.4-0.6,12.1c-0.1,4.7-0.2,10.1-0.2,16.4V715.3z"/>
	<path fill="#FFFFFF" d="M1611.2,688c-1.9,0-4.3,0-7.1,0c-2.8,0-5.9,0-9.3,0c-3.4,0-6.8,0-10.4,0s-7,0-10.2,0
		c-3.2,0-6.2,0.1-8.8,0.1c-2.7,0-4.7,0-6.2,0l-3.9,8.2c-1.7,3.4-3.1,6.3-4.3,8.8c-1.2,2.5-2.2,4.7-2.9,6.6c-0.8,1.9-1.3,3.5-1.7,4.9
		c-0.4,1.4-0.5,2.6-0.5,3.8c0,0.8,0,1.3,0.1,1.7c0.1,0.4,0.2,0.7,0.3,0.9v0.4h-18.5v-0.4c0.5-0.5,1.3-1.6,2.3-3.2
		c1.1-1.6,2.3-3.7,3.6-6c1.4-2.4,2.8-5.1,4.4-8.1c1.6-3,3.1-6.1,4.7-9.3l42.9-88.5h7.9l42,88.5c1.6,3.4,3.2,6.6,4.9,9.7
		c1.6,3.1,3.2,5.8,4.6,8.2c1.4,2.4,2.6,4.4,3.7,6c1.1,1.6,1.7,2.5,2.1,2.8v0.4h-26.9c0.1-0.6,0.2-1.1,0.2-1.5s0-1,0-1.5
		c0-1.5-0.3-3.4-1-5.6c-0.7-2.2-1.5-4.4-2.4-6.7c-0.9-2.3-1.9-4.5-2.9-6.6c-1-2.1-1.8-3.8-2.5-5.3L1611.2,688z M1563.3,679.8h6.4
		c2.9,0,6.1,0,9.4,0c3.3,0,6.7-0.1,10-0.1s6.6,0,9.8-0.1c3.2,0,6,0,8.5,0l-21.7-46.4L1563.3,679.8z"/>
	<path fill="#FFFFFF" d="M1770.2,632.5h-2.1c-0.4-1.2-1.1-2.7-2.1-4.5c-0.9-1.8-2.2-3.6-3.8-5.4c-1.6-1.7-3.5-3.2-5.8-4.5
		c-2.3-1.2-5.1-1.8-8.3-1.8c-2.5,0-4.6,0.4-6.6,1.2c-1.9,0.8-3.6,1.9-4.9,3.3c-1.3,1.4-2.3,3.1-3,5c-0.7,1.9-1.1,4-1.1,6.3
		c0,3.6,1.1,7.1,3.3,10.4c2.2,3.3,4.9,6.6,8.2,9.8c3.3,3.3,6.9,6.5,10.7,9.8c3.8,3.3,7.4,6.7,10.7,10.3s6,7.4,8.2,11.3
		c2.2,4,3.3,8.3,3.3,12.8c0,3.4-0.6,6.8-1.8,10.4c-1.2,3.6-3.2,6.8-5.9,9.7c-2.7,2.9-6.2,5.2-10.5,7.1c-4.3,1.9-9.5,2.8-15.5,2.8
		c-3.4,0-6.6-0.3-9.6-0.8c-3-0.6-5.8-1.2-8.4-2c-2.6-0.8-4.8-1.7-6.8-2.6c-2-0.9-3.7-1.8-5-2.7l1.9-19.9h2.2
		c0.7,2.5,1.7,4.9,3.1,7.4c1.4,2.5,3.1,4.7,5,6.7c2,2,4.3,3.6,7,4.8c2.7,1.2,5.8,1.8,9.3,1.8c2.5,0,4.8-0.4,6.9-1.2
		c2.2-0.8,4-2,5.6-3.4c1.6-1.5,2.8-3.3,3.7-5.4c0.9-2.1,1.4-4.5,1.4-7.2c0-3.2-0.6-6.1-1.9-8.8c-1.3-2.7-2.9-5.3-5-7.8
		c-2.1-2.5-4.5-4.9-7.1-7.2c-2.6-2.3-5.3-4.7-8.1-7s-5.5-4.8-8.1-7.3c-2.6-2.5-5-5.2-7.1-8c-2.1-2.9-3.8-5.9-5-9.2
		c-1.3-3.3-1.9-6.8-1.9-10.8c0-4.1,0.9-7.8,2.6-11.1c1.7-3.3,4.1-6.1,6.9-8.4c2.9-2.3,6.2-4,9.9-5.3c3.7-1.2,7.6-1.8,11.6-1.8
		c2.9,0,5.7,0.2,8.2,0.6c2.6,0.4,4.9,0.9,6.9,1.5c2.1,0.6,3.9,1.2,5.4,1.8c1.5,0.6,2.8,1.1,3.8,1.4L1770.2,632.5z"/>
	<path fill="#FFFFFF" d="M1905.7,632.5h-2.1c-0.4-1.2-1.1-2.7-2.1-4.5c-0.9-1.8-2.2-3.6-3.8-5.4c-1.6-1.7-3.5-3.2-5.8-4.5
		c-2.3-1.2-5.1-1.8-8.3-1.8c-2.5,0-4.6,0.4-6.6,1.2c-1.9,0.8-3.6,1.9-4.9,3.3c-1.3,1.4-2.3,3.1-3,5c-0.7,1.9-1.1,4-1.1,6.3
		c0,3.6,1.1,7.1,3.3,10.4c2.2,3.3,4.9,6.6,8.2,9.8c3.3,3.3,6.9,6.5,10.7,9.8s7.4,6.7,10.7,10.3s6,7.4,8.2,11.3
		c2.2,4,3.3,8.3,3.3,12.8c0,3.4-0.6,6.8-1.8,10.4c-1.2,3.6-3.2,6.8-5.9,9.7c-2.7,2.9-6.2,5.2-10.5,7.1c-4.3,1.9-9.5,2.8-15.5,2.8
		c-3.4,0-6.6-0.3-9.6-0.8c-3-0.6-5.8-1.2-8.4-2c-2.6-0.8-4.8-1.7-6.8-2.6c-2-0.9-3.7-1.8-5-2.7l1.9-19.9h2.2
		c0.7,2.5,1.7,4.9,3.1,7.4c1.4,2.5,3.1,4.7,5,6.7c2,2,4.3,3.6,7,4.8c2.7,1.2,5.8,1.8,9.3,1.8c2.5,0,4.8-0.4,6.9-1.2
		c2.2-0.8,4-2,5.6-3.4c1.6-1.5,2.8-3.3,3.7-5.4c0.9-2.1,1.4-4.5,1.4-7.2c0-3.2-0.6-6.1-1.9-8.8c-1.3-2.7-2.9-5.3-5-7.8
		c-2.1-2.5-4.5-4.9-7.1-7.2c-2.6-2.3-5.3-4.7-8.1-7c-2.8-2.4-5.5-4.8-8.1-7.3c-2.6-2.5-5-5.2-7.1-8c-2.1-2.9-3.8-5.9-5-9.2
		c-1.3-3.3-1.9-6.8-1.9-10.8c0-4.1,0.9-7.8,2.6-11.1c1.7-3.3,4.1-6.1,6.9-8.4c2.9-2.3,6.2-4,9.9-5.3c3.7-1.2,7.6-1.8,11.6-1.8
		c2.9,0,5.7,0.2,8.2,0.6c2.6,0.4,4.9,0.9,6.9,1.5c2.1,0.6,3.9,1.2,5.4,1.8c1.5,0.6,2.8,1.1,3.8,1.4L1905.7,632.5z"/>
	<path fill="#FFFFFF" d="M1994,653.8c0-6.3-0.1-11.8-0.2-16.4c-0.1-4.7-0.3-8.7-0.6-12.1c-0.2-3.4-0.6-6.2-0.9-8.6
		c-0.4-2.3-0.8-4.2-1.3-5.7v-0.4h24.4v0.4c-0.5,1.5-0.9,3.4-1.3,5.7c-0.4,2.3-0.7,5.2-0.9,8.6c-0.2,3.4-0.4,7.4-0.6,12.1
		c-0.1,4.7-0.2,10.1-0.2,16.4v26.5c0,6.3,0.1,11.8,0.2,16.5c0.1,4.7,0.3,8.7,0.6,12.1c0.2,3.4,0.6,6.3,0.9,8.6
		c0.4,2.3,0.8,4.2,1.3,5.7v0.4H1991v-0.4c0.5-1.5,0.9-3.4,1.3-5.7c0.4-2.3,0.7-5.2,0.9-8.6c0.2-3.4,0.4-7.4,0.6-12.1
		c0.1-4.7,0.2-10.2,0.2-16.5V653.8z"/>
	<path fill="#FFFFFF" d="M2194.9,700.1l-8.2,19.5c-2,0.9-4.3,1.7-6.9,2.5c-2.6,0.7-5.2,1.3-7.9,1.8s-5.5,0.9-8.3,1.1
		c-2.8,0.2-5.5,0.4-8,0.4c-8.8,0-17-1.3-24.5-3.9c-7.5-2.6-14-6.4-19.5-11.4c-5.5-5-9.7-11.1-12.8-18.4s-4.6-15.6-4.6-25
		c0-8.3,1.6-15.9,4.8-23s7.7-13.2,13.3-18.4c5.7-5.2,12.4-9.3,20.1-12.2c7.7-2.9,16.1-4.4,25.2-4.4c2,0,4.2,0.1,6.5,0.3
		c2.3,0.2,4.5,0.4,6.8,0.8c2.2,0.4,4.4,0.8,6.5,1.2c2.1,0.5,4.1,0.9,5.9,1.4l7.9,18.9l-1.3,0.7c-1.9-2.3-4.1-4.4-6.8-6.4
		c-2.6-2-5.5-3.6-8.6-5c-3.1-1.4-6.4-2.4-9.8-3.2c-3.4-0.8-6.9-1.2-10.5-1.2c-5.8,0-11.1,1-15.9,3c-4.8,2-8.9,5-12.3,8.9
		c-3.4,3.9-6,8.6-7.9,14.2c-1.9,5.6-2.8,11.9-2.8,19c0,8,0.9,15.4,2.7,22.3c1.8,6.9,4.6,12.9,8.2,18c3.6,5.1,8.2,9.1,13.7,12
		c5.5,2.9,11.8,4.4,19.1,4.4c3.5,0,7-0.4,10.3-1.3c3.4-0.9,6.6-2.1,9.7-3.7c3.1-1.6,5.8-3.6,8.4-5.8c2.5-2.3,4.7-4.8,6.5-7.6
		L2194.9,700.1z"/>
	<path fill="#FFFFFF" d="M2428.3,582.1c-8.3,0-15.7,0.4-22.4,1.1c-6.7,0.7-12.4,1.5-17.2,2.4c-5.6,1.1-10.6,2.2-15,3.5l3-17
		c0.8,0.1,2.1,0.1,3.8,0.2s3.6,0.1,5.6,0.2c2.1,0.1,4.2,0.1,6.5,0.2c2.3,0,4.4,0.1,6.5,0.1c2,0,3.8,0.1,5.4,0.1c1.6,0,2.7,0,3.4,0
		h60c0.7,0,1.8,0,3.4,0c1.6,0,3.4-0.1,5.4-0.1c2,0,4.2-0.1,6.5-0.1c2.3,0,4.4-0.1,6.5-0.2c2.1-0.1,3.9-0.1,5.6-0.2
		c1.7-0.1,2.9-0.1,3.8-0.2l3,17c-4.5-1.3-9.5-2.4-15.1-3.5c-4.8-0.8-10.6-1.6-17.2-2.4c-6.7-0.7-14.1-1.1-22.4-1.1v100.3
		c0,6,0.1,11.2,0.3,15.6c0.2,4.4,0.4,8.3,0.6,11.5c0.2,3.2,0.6,5.9,1,8.1c0.4,2.2,0.8,4,1.2,5.5v0.4h-25.1v-0.4
		c0.4-1.5,0.8-3.3,1.2-5.5c0.4-2.2,0.7-4.9,0.9-8.1s0.5-7.1,0.6-11.5c0.1-4.4,0.2-9.7,0.2-15.6V582.1z"/>
	<path fill="#FFFFFF" d="M2569,653.8c0-6.3-0.1-11.8-0.2-16.4c-0.1-4.7-0.3-8.7-0.6-12.1c-0.2-3.4-0.6-6.2-0.9-8.6
		c-0.4-2.3-0.8-4.2-1.3-5.7v-0.4h24.4v0.4c-0.5,1.5-0.9,3.4-1.3,5.7c-0.4,2.3-0.7,5.2-0.9,8.6c-0.2,3.4-0.4,7.4-0.6,12.1
		c-0.1,4.7-0.2,10.1-0.2,16.4v26.5c0,6.3,0.1,11.8,0.2,16.5c0.1,4.7,0.3,8.7,0.6,12.1c0.2,3.4,0.6,6.3,0.9,8.6
		c0.4,2.3,0.8,4.2,1.3,5.7v0.4h-24.4v-0.4c0.5-1.5,0.9-3.4,1.3-5.7c0.4-2.3,0.7-5.2,0.9-8.6c0.2-3.4,0.4-7.4,0.6-12.1
		c0.1-4.7,0.2-10.2,0.2-16.5V653.8z"/>
	<path fill="#FFFFFF" d="M2667.7,723.1c0.9-1,1.8-2.8,2.8-5.4c0.9-2.6,1.7-5.4,2.2-8.4c0.8-4.9,1.8-10.5,2.8-16.8
		c1-6.3,2-12.7,3-19.4c1-6.7,2-13.3,3-19.9c1-6.6,1.9-12.8,2.7-18.4s1.5-10.6,2.1-14.9c0.6-4.3,0.9-7.4,1.1-9.3h12.5l50.1,89.7
		l51.4-89.7h10.2l12.6,87.7c0.6,4,1.2,7.4,1.8,10.2c0.6,2.8,1.2,5.2,1.7,7.1c0.6,1.9,1.1,3.5,1.7,4.7c0.6,1.2,1.1,2.2,1.5,2.8v0.4
		h-25.8v-0.4c0.2-0.6,0.5-1.5,0.8-2.8c0.3-1.3,0.5-2.9,0.5-4.7c0-1.2-0.1-2.9-0.3-5.1c-0.2-2.2-0.4-4.4-0.8-6.6l-9-64.4l-47.8,83.9
		l-7.5-1.1l-47-83.5c-1.7,11.8-3.3,22.7-4.6,32.7c-0.6,4.3-1.1,8.5-1.7,12.8c-0.6,4.3-1,8.3-1.5,12c-0.4,3.8-0.8,7.1-1.1,9.9
		c-0.3,2.9-0.4,5-0.4,6.4c0,1.8,0,3.3,0.1,4.6c0.1,1.3,0.2,2.4,0.3,3.4c0.1,1.1,0.3,2.1,0.4,2.9h-18.1V723.1z"/>
	<path fill="#FFFFFF" d="M2930,610.5c7.2,0,13.9-0.1,20.1-0.2c6.2-0.1,11.5-0.2,15.9-0.4c4.4-0.1,7.4-0.4,8.8-0.6l-4.1,11.3
		c-1.9-0.5-4-0.9-6.4-1.4c-2.1-0.4-4.6-0.7-7.6-1c-3-0.3-6.4-0.5-10.3-0.5c-1.4,0-3,0-4.8,0.2c-1.8,0.1-3.6,0.2-5.2,0.4
		c-2,0.1-4,0.3-6,0.4v41.5c5.7-0.1,10.8-0.2,15.3-0.4c4.5-0.2,8.4-0.5,11.7-0.8c3.8-0.3,7.1-0.7,10-1.2l-2.5,12.5
		c-3.9-0.5-7.7-0.9-11.7-1.3c-3.4-0.4-7.1-0.6-11.1-0.9c-4.1-0.2-7.9-0.4-11.7-0.4v47.7c6.5,0,12.5-0.3,18-0.8
		c5.5-0.5,10.2-1.1,14.3-1.7c4.8-0.8,9.1-1.6,12.9-2.6l-2.4,13.8c-1-0.1-2.7-0.2-5.1-0.3c-2.3-0.1-4.8-0.2-7.4-0.2
		c-2.6,0-5-0.1-7.2-0.1c-2.2,0-3.8,0-4.6,0h-39.8v-0.4c0.5-1.5,0.9-3.4,1.3-5.7c0.4-2.3,0.7-5.2,0.9-8.6c0.2-3.4,0.4-7.4,0.6-12.1
		c0.1-4.7,0.2-10.2,0.2-16.5v-26.5c0-6.3-0.1-11.8-0.2-16.4c-0.1-4.7-0.3-8.7-0.6-12.1c-0.2-3.4-0.6-6.2-0.9-8.6
		c-0.4-2.3-0.8-4.2-1.3-5.7v-0.4C2915.8,610.6,2922.8,610.6,2930,610.5z"/>
	<path fill="#FFFFFF" d="M3075.6,679.6c0,6.3,0.1,11.8,0.2,16.6c0.1,4.8,0.3,8.9,0.6,12.3c0.2,3.5,0.5,6.4,0.9,8.8
		c0.3,2.4,0.8,4.3,1.3,5.8v0.4h-24.3v-0.4c0.5-1.5,0.9-3.4,1.3-5.7c0.4-2.3,0.7-5.2,0.9-8.6c0.2-3.4,0.4-7.4,0.6-12.1
		c0.1-4.7,0.2-10.2,0.2-16.5v-26.5c0-6.3-0.1-11.8-0.2-16.4c-0.1-4.7-0.3-8.7-0.6-12.1c-0.2-3.4-0.6-6.2-0.9-8.6
		c-0.4-2.3-0.8-4.2-1.3-5.7v-0.4c1.5,0.1,3.1,0.1,4.6,0.2c1.3,0.1,2.7,0.1,4.3,0.2c1.5,0,2.9,0.1,4.3,0.1c2.2,0,5.5-0.2,9.9-0.6
		c4.4-0.4,9.5-0.6,15.5-0.6c5.5,0,10.5,0.7,15.2,2.2c4.7,1.4,8.7,3.6,12.1,6.4c3.4,2.8,6.1,6.2,8,10.2c1.9,4,2.9,8.7,2.9,13.9
		c0,6.2-1.2,11.6-3.6,16.3c-2.4,4.7-5.6,8.7-9.7,11.9c-4.1,3.2-8.9,5.6-14.4,7.2s-11.4,2.4-17.6,2.4
		C3082.4,680.2,3079.1,680,3075.6,679.6z M3075.6,672.4c1.4,0.2,2.8,0.4,4.2,0.6c1.4,0.2,2.7,0.3,4,0.3c4,0,7.6-0.6,11-1.8
		c3.3-1.2,6.2-3.1,8.5-5.5s4.2-5.6,5.5-9.3s1.9-8.2,1.9-13.2c0-4.1-0.5-7.7-1.4-11c-0.9-3.3-2.3-6.1-4.1-8.5c-1.8-2.3-4-4.2-6.7-5.5
		c-2.7-1.3-5.7-1.9-9.2-1.9c-2.2,0-4.2,0.1-5.9,0.3c-1.7,0.2-3.2,0.4-4.4,0.6c-1.3,0.3-2.5,0.6-3.5,0.8V672.4z"/>
	<path fill="#FFFFFF" d="M3208.6,653.8c0-6.3-0.1-11.8-0.2-16.4c-0.1-4.7-0.3-8.7-0.6-12.1c-0.2-3.4-0.6-6.2-0.9-8.6
		c-0.4-2.3-0.8-4.2-1.3-5.7v-0.4h24.4v0.4c-0.5,1.5-0.9,3.4-1.3,5.7c-0.4,2.3-0.7,5.2-0.9,8.6c-0.2,3.4-0.4,7.4-0.6,12.1
		c-0.1,4.7-0.2,10.1-0.2,16.4v26.5c0,6.3,0.1,11.8,0.2,16.5c0.1,4.7,0.3,8.7,0.6,12.1c0.2,3.4,0.6,6.3,0.9,8.6
		c0.4,2.3,0.8,4.2,1.3,5.7v0.4h-24.4v-0.4c0.5-1.5,0.9-3.4,1.3-5.7c0.4-2.3,0.7-5.2,0.9-8.6c0.2-3.4,0.4-7.4,0.6-12.1
		c0.1-4.7,0.2-10.2,0.2-16.5V653.8z"/>
	<path fill="#FFFFFF" d="M3335.7,610.5c7.2,0,13.9-0.1,20.1-0.2c6.2-0.1,11.5-0.2,15.9-0.4c4.4-0.1,7.4-0.4,8.8-0.6l-4.1,11.3
		c-1.9-0.5-4-0.9-6.4-1.4c-2.1-0.4-4.6-0.7-7.6-1c-3-0.3-6.4-0.5-10.3-0.5c-1.4,0-3,0-4.8,0.2c-1.8,0.1-3.6,0.2-5.2,0.4
		c-2,0.1-4,0.3-6,0.4v41.5c5.7-0.1,10.8-0.2,15.3-0.4c4.5-0.2,8.4-0.5,11.7-0.8c3.8-0.3,7.1-0.7,10-1.2l-2.5,12.5
		c-3.9-0.5-7.7-0.9-11.7-1.3c-3.4-0.4-7.1-0.6-11.1-0.9c-4.1-0.2-7.9-0.4-11.7-0.4v47.7c6.5,0,12.5-0.3,18-0.8
		c5.5-0.5,10.2-1.1,14.3-1.7c4.8-0.8,9.1-1.6,12.9-2.6l-2.4,13.8c-1-0.1-2.7-0.2-5.1-0.3c-2.3-0.1-4.8-0.2-7.4-0.2
		c-2.6,0-5-0.1-7.2-0.1c-2.2,0-3.8,0-4.6,0h-39.8v-0.4c0.5-1.5,0.9-3.4,1.3-5.7c0.4-2.3,0.7-5.2,0.9-8.6c0.2-3.4,0.4-7.4,0.6-12.1
		c0.1-4.7,0.2-10.2,0.2-16.5v-26.5c0-6.3-0.1-11.8-0.2-16.4c-0.1-4.7-0.3-8.7-0.6-12.1c-0.2-3.4-0.6-6.2-0.9-8.6
		c-0.4-2.3-0.8-4.2-1.3-5.7v-0.4C3321.5,610.6,3328.5,610.6,3335.7,610.5z"/>
	<path fill="#FFFFFF" d="M3554.9,700.1l-8.2,19.5c-2,0.9-4.3,1.7-6.9,2.5c-2.6,0.7-5.2,1.3-7.9,1.8c-2.7,0.5-5.5,0.9-8.4,1.1
		c-2.8,0.2-5.5,0.4-8,0.4c-8.8,0-17-1.3-24.5-3.9c-7.5-2.6-14-6.4-19.5-11.4c-5.5-5-9.7-11.1-12.8-18.4c-3.1-7.3-4.6-15.6-4.6-25
		c0-8.3,1.6-15.9,4.8-23s7.7-13.2,13.3-18.4c5.7-5.2,12.4-9.3,20.1-12.2c7.7-2.9,16.1-4.4,25.2-4.4c2,0,4.2,0.1,6.5,0.3
		c2.3,0.2,4.5,0.4,6.8,0.8c2.2,0.4,4.4,0.8,6.5,1.2c2.1,0.5,4.1,0.9,5.9,1.4l7.9,18.9l-1.3,0.7c-1.9-2.3-4.1-4.4-6.8-6.4
		c-2.6-2-5.5-3.6-8.6-5c-3.1-1.4-6.4-2.4-9.8-3.2c-3.4-0.8-6.9-1.2-10.5-1.2c-5.8,0-11.1,1-15.9,3c-4.8,2-8.9,5-12.3,8.9
		c-3.4,3.9-6,8.6-7.9,14.2c-1.9,5.6-2.8,11.9-2.8,19c0,8,0.9,15.4,2.7,22.3c1.8,6.9,4.5,12.9,8.2,18c3.6,5.1,8.2,9.1,13.7,12
		c5.5,2.9,11.8,4.4,19.1,4.4c3.5,0,6.9-0.4,10.3-1.3c3.4-0.9,6.6-2.1,9.7-3.7c3.1-1.6,5.8-3.6,8.4-5.8c2.5-2.3,4.7-4.8,6.5-7.6
		L3554.9,700.1z"/>
	<path fill="#FFFFFF" d="M3648.5,610.5c7.2,0,13.9-0.1,20.1-0.2c6.2-0.1,11.5-0.2,15.9-0.4c4.4-0.1,7.4-0.4,8.8-0.6l-4.1,11.3
		c-1.9-0.5-4-0.9-6.4-1.4c-2.1-0.4-4.6-0.7-7.6-1c-3-0.3-6.4-0.5-10.3-0.5c-1.4,0-3,0-4.8,0.2c-1.8,0.1-3.6,0.2-5.2,0.4
		c-2,0.1-4,0.3-6,0.4v41.5c5.7-0.1,10.8-0.2,15.3-0.4c4.5-0.2,8.4-0.5,11.7-0.8c3.8-0.3,7.1-0.7,10-1.2l-2.5,12.5
		c-3.9-0.5-7.7-0.9-11.7-1.3c-3.4-0.4-7.1-0.6-11.1-0.9c-4.1-0.2-7.9-0.4-11.7-0.4v47.7c6.5,0,12.5-0.3,18-0.8
		c5.5-0.5,10.2-1.1,14.3-1.7c4.8-0.8,9.1-1.6,12.9-2.6l-2.4,13.8c-1-0.1-2.7-0.2-5.1-0.3c-2.3-0.1-4.8-0.2-7.4-0.2
		c-2.6,0-5-0.1-7.2-0.1c-2.2,0-3.8,0-4.6,0h-39.8v-0.4c0.5-1.5,0.9-3.4,1.3-5.7c0.4-2.3,0.7-5.2,0.9-8.6c0.2-3.4,0.4-7.4,0.6-12.1
		c0.1-4.7,0.2-10.2,0.2-16.5v-26.5c0-6.3-0.1-11.8-0.2-16.4c-0.1-4.7-0.3-8.7-0.6-12.1c-0.2-3.4-0.6-6.2-0.9-8.6
		c-0.4-2.3-0.8-4.2-1.3-5.7v-0.4C3634.3,610.6,3641.3,610.6,3648.5,610.5z"/>
	<path fill="#FFFFFF" d="M3824,632.5h-2.1c-0.4-1.2-1.1-2.7-2.1-4.5c-0.9-1.8-2.2-3.6-3.8-5.4c-1.6-1.7-3.5-3.2-5.8-4.5
		c-2.3-1.2-5.1-1.8-8.3-1.8c-2.4,0-4.6,0.4-6.6,1.2c-1.9,0.8-3.6,1.9-4.9,3.3c-1.3,1.4-2.3,3.1-3.1,5c-0.7,1.9-1.1,4-1.1,6.3
		c0,3.6,1.1,7.1,3.3,10.4c2.2,3.3,5,6.6,8.2,9.8c3.3,3.3,6.9,6.5,10.7,9.8s7.4,6.7,10.7,10.3s6,7.4,8.2,11.3c2.2,4,3.3,8.3,3.3,12.8
		c0,3.4-0.6,6.8-1.8,10.4c-1.2,3.6-3.2,6.8-5.9,9.7c-2.7,2.9-6.2,5.2-10.5,7.1c-4.3,1.9-9.5,2.8-15.5,2.8c-3.4,0-6.6-0.3-9.6-0.8
		c-3-0.6-5.8-1.2-8.4-2c-2.6-0.8-4.8-1.7-6.8-2.6c-2-0.9-3.7-1.8-5-2.7l1.9-19.9h2.2c0.7,2.5,1.7,4.9,3.1,7.4c1.4,2.5,3.1,4.7,5,6.7
		c2,2,4.4,3.6,7,4.8c2.7,1.2,5.8,1.8,9.3,1.8c2.4,0,4.8-0.4,6.9-1.2c2.2-0.8,4-2,5.6-3.4c1.6-1.5,2.8-3.3,3.7-5.4
		c0.9-2.1,1.4-4.5,1.4-7.2c0-3.2-0.6-6.1-1.9-8.8c-1.3-2.7-2.9-5.3-5-7.8c-2.1-2.5-4.5-4.9-7.1-7.2c-2.6-2.3-5.3-4.7-8.1-7
		c-2.8-2.4-5.5-4.8-8.1-7.3c-2.6-2.5-5-5.2-7.1-8c-2.1-2.9-3.8-5.9-5-9.2c-1.3-3.3-1.9-6.8-1.9-10.8c0-4.1,0.9-7.8,2.6-11.1
		c1.8-3.3,4.1-6.1,6.9-8.4c2.9-2.3,6.2-4,9.9-5.3c3.7-1.2,7.6-1.8,11.6-1.8c2.9,0,5.7,0.2,8.2,0.6c2.6,0.4,4.9,0.9,6.9,1.5
		c2.1,0.6,3.9,1.2,5.4,1.8c1.5,0.6,2.8,1.1,3.8,1.4L3824,632.5z"/>
</g>
<g>
	<path fill="#FFFFFF" d="M132.5,83.3c-16.5,0-31.4,0.7-44.8,2.2c-13.3,1.5-24.8,3-34.5,4.7c-11.2,2.1-21.2,4.4-30,6.9l6.1-34
		c1.7,0.1,4.2,0.3,7.6,0.4c3.4,0.1,7.1,0.3,11.2,0.4c4.1,0.1,8.5,0.2,13,0.3c4.5,0.1,8.9,0.1,12.9,0.2c4.1,0.1,7.7,0.1,10.8,0.2
		c3.2,0.1,5.4,0.1,6.8,0.1h120c1.4,0,3.7,0,6.8-0.1c3.2-0.1,6.8-0.1,10.8-0.2c4.1-0.1,8.4-0.1,12.9-0.2c4.5-0.1,8.9-0.2,13-0.3
		c4.1-0.1,7.9-0.3,11.2-0.4c3.4-0.1,5.9-0.3,7.6-0.4l6.1,34c-9-2.5-19.1-4.8-30.3-6.9c-9.7-1.7-21.2-3.3-34.5-4.7
		c-13.3-1.5-28.2-2.2-44.8-2.2V284c0,11.9,0.2,22.3,0.5,31.2c0.3,8.9,0.8,16.6,1.3,23c0.5,6.4,1.1,11.8,1.9,16.2
		c0.8,4.3,1.6,8,2.4,10.9v0.8h-50.2v-0.8c0.8-2.9,1.6-6.6,2.3-10.9c0.7-4.3,1.3-9.7,1.9-16.2c0.6-6.4,1-14.1,1.3-23
		c0.3-8.9,0.4-19.3,0.4-31.2V83.3z"/>
	<path fill="#FFFFFF" d="M629.2,222c-5.6-0.1-12.6-0.2-21-0.3c-8.4-0.1-17.5-0.2-27.4-0.3c-9.9-0.1-20.2-0.2-30.9-0.3
		c-10.7-0.1-21.2-0.1-31.4-0.2c-10.2-0.1-20,0-29.2,0.1c-9.2,0.1-17.3,0.4-24.2,0.6V284c0,11.9,0.2,22.3,0.5,31.2
		c0.3,8.9,0.8,16.6,1.3,23c0.5,6.4,1.1,11.8,1.9,16.2c0.8,4.3,1.6,8,2.4,10.9v0.8h-50.4v-0.8c0.8-2.9,1.6-6.6,2.4-10.9
		c0.8-4.3,1.4-9.7,2-16.2c0.6-6.4,1-14.1,1.3-23c0.3-8.9,0.4-19.3,0.4-31.2V147.2c0-11.9-0.1-22.3-0.4-31.2
		c-0.3-8.9-0.7-16.6-1.3-23.1c-0.6-6.5-1.2-11.9-2-16.3c-0.8-4.3-1.6-8-2.4-10.9v-0.8h50.4v0.8c-0.8,2.9-1.6,6.6-2.4,10.9
		c-0.8,4.3-1.4,9.8-1.9,16.3c-0.5,6.5-0.9,14.2-1.3,23.1c-0.4,8.9-0.5,19.3-0.5,31.2V201c7.3,0.3,15.5,0.5,24.8,0.5
		c9.2,0.1,18.9,0.1,29,0c10.1-0.1,20.3-0.2,30.8-0.3c10.4-0.1,20.5-0.3,30.3-0.5c9.7-0.2,18.8-0.5,27.3-0.7c8.5-0.3,15.8-0.6,22-0.8
		v-51.9c0-11.9-0.2-22.3-0.5-31.2c-0.4-8.9-0.8-16.6-1.3-23.1c-0.5-6.5-1.1-11.9-1.9-16.3c-0.8-4.3-1.6-8-2.4-10.9v-0.8h50.4v0.8
		c-0.8,2.9-1.6,6.6-2.4,10.9c-0.8,4.3-1.4,9.8-2,16.3c-0.6,6.5-1,14.2-1.3,23.1c-0.3,8.9-0.4,19.3-0.4,31.2V284
		c0,11.9,0.1,22.3,0.4,31.2c0.3,8.9,0.7,16.6,1.3,23c0.6,6.4,1.2,11.8,2,16.2c0.8,4.3,1.6,8,2.4,10.9v0.8h-50.4v-0.8
		c0.8-2.9,1.6-6.6,2.4-10.9c0.8-4.3,1.4-9.7,1.9-16.2c0.5-6.4,0.9-14.1,1.3-23c0.3-8.9,0.5-19.3,0.5-31.2V222z"/>
	<path fill="#FFFFFF" d="M846.1,365.3c0.8-2.9,1.6-6.6,2.3-10.9c0.7-4.3,1.3-9.7,1.9-16.2c0.6-6.4,1-14.1,1.3-23
		c0.3-8.9,0.4-19.3,0.4-31.2V147.2c0-11.9-0.1-22.3-0.4-31.2c-0.3-8.9-0.7-16.6-1.3-23.1c-0.6-6.5-1.2-11.9-1.9-16.3
		c-0.7-4.3-1.5-8-2.3-10.9v-0.8h50.2v0.8c-0.8,2.9-1.6,6.6-2.4,10.9c-0.8,4.3-1.4,9.8-1.9,16.3c-0.5,6.5-0.9,14.2-1.3,23.1
		c-0.4,8.9-0.5,19.3-0.5,31.2V284c0,11.9,0.2,22.3,0.5,31.2c0.3,8.9,0.8,16.6,1.3,23c0.5,6.4,1.1,11.8,1.9,16.2
		c0.8,4.3,1.6,8,2.4,10.9v0.8h-50.2V365.3z"/>
	<path fill="#FFFFFF" d="M1080.7,64.8l216.4,230.3V147.2c0-11.9-0.1-22.3-0.4-31.2c-0.3-8.9-0.7-16.6-1.3-23.1
		c-0.6-6.5-1.2-11.9-2-16.3c-0.8-4.3-1.6-8-2.4-10.9v-0.8h37.4v0.8c-0.8,2.9-1.6,6.6-2.3,10.9c-0.7,4.3-1.3,9.8-1.9,16.3
		c-0.6,6.5-1,14.2-1.3,23.1c-0.3,8.9-0.4,19.3-0.4,31.2v223.1h-7.4l-216.4-230.1V284c0,11.9,0.1,22.3,0.4,31.2
		c0.3,8.9,0.7,16.6,1.3,23c0.6,6.4,1.2,11.8,1.9,16.2c0.7,4.3,1.5,8,2.3,10.9v0.8h-37.4v-0.8c0.8-2.9,1.6-6.6,2.4-10.9
		c0.8-4.3,1.4-9.7,2-16.2c0.6-6.4,1-14.1,1.3-23c0.3-8.9,0.4-19.3,0.4-31.2V147.2c0-11.9-0.1-22.3-0.4-31.2
		c-0.3-8.9-0.7-16.6-1.3-23.1c-0.6-6.5-1.2-11.9-2-16.3c-0.8-4.3-1.6-8-2.4-10.9v-0.8H1080.7z"/>
	<path fill="#FFFFFF" d="M1933.6,104.6l84,204l81.7-200.2c3.2-8.3,5.6-15.3,7.1-21c1.5-5.7,2.3-10.6,2.3-14.7c0-1.3-0.1-2.6-0.2-3.9
		c-0.1-1.3-0.4-2.3-0.6-3v-0.8h41.6v0.8c-2.8,3.1-5.9,8-9.1,14.7c-3.3,6.7-7.1,15.1-11.5,25l-112.2,267.2h-16l-81.7-198.3
		l-74.6,198.3h-15.8l-102.9-256.9c-2.5-6-5.1-11.8-7.7-17.4c-2.6-5.6-5-10.6-7.4-15.1c-2.3-4.5-4.4-8.3-6.3-11.3
		c-1.9-3.1-3.3-5.1-4.1-6.1v-0.8h58.2v0.8c-0.3,1.5-0.4,2.7-0.4,3.6s0,1.8,0,2.9c0,4.8,0.5,9.8,1.6,15.1c1.1,5.3,3.1,11.8,6.2,19.3
		l79,199.6l75.4-200.9L1933.6,104.6z"/>
	<path fill="#FFFFFF" d="M2492.3,222c-5.6-0.1-12.6-0.2-21-0.3c-8.4-0.1-17.5-0.2-27.4-0.3c-9.9-0.1-20.2-0.2-30.9-0.3
		c-10.7-0.1-21.2-0.1-31.4-0.2c-10.2-0.1-20,0-29.2,0.1c-9.2,0.1-17.3,0.4-24.2,0.6V284c0,11.9,0.2,22.3,0.5,31.2
		c0.3,8.9,0.8,16.6,1.3,23c0.5,6.4,1.1,11.8,1.9,16.2c0.8,4.3,1.6,8,2.4,10.9v0.8h-50.4v-0.8c0.8-2.9,1.6-6.6,2.4-10.9
		c0.8-4.3,1.4-9.7,2-16.2c0.6-6.4,1-14.1,1.3-23c0.3-8.9,0.4-19.3,0.4-31.2V147.2c0-11.9-0.1-22.3-0.4-31.2
		c-0.3-8.9-0.7-16.6-1.3-23.1c-0.6-6.5-1.2-11.9-2-16.3c-0.8-4.3-1.6-8-2.4-10.9v-0.8h50.4v0.8c-0.8,2.9-1.6,6.6-2.4,10.9
		c-0.8,4.3-1.4,9.8-1.9,16.3c-0.5,6.5-0.9,14.2-1.3,23.1c-0.4,8.9-0.5,19.3-0.5,31.2V201c7.3,0.3,15.5,0.5,24.8,0.5
		c9.2,0.1,18.9,0.1,29,0c10.1-0.1,20.3-0.2,30.8-0.3c10.4-0.1,20.5-0.3,30.3-0.5c9.7-0.2,18.8-0.5,27.3-0.7c8.5-0.3,15.8-0.6,22-0.8
		v-51.9c0-11.9-0.2-22.3-0.5-31.2c-0.4-8.9-0.8-16.6-1.3-23.1c-0.5-6.5-1.1-11.9-1.9-16.3c-0.8-4.3-1.6-8-2.4-10.9v-0.8h50.4v0.8
		c-0.8,2.9-1.6,6.6-2.4,10.9c-0.8,4.3-1.4,9.8-2,16.3c-0.6,6.5-1,14.2-1.3,23.1c-0.3,8.9-0.4,19.3-0.4,31.2V284
		c0,11.9,0.1,22.3,0.4,31.2c0.3,8.9,0.7,16.6,1.3,23c0.5,6.4,1.2,11.8,2,16.2c0.8,4.3,1.6,8,2.4,10.9v0.8h-50.4v-0.8
		c0.8-2.9,1.6-6.6,2.4-10.9c0.8-4.3,1.4-9.7,1.9-16.2c0.5-6.4,0.9-14.1,1.3-23c0.3-8.9,0.5-19.3,0.5-31.2V222z"/>
	<path fill="#FFFFFF" d="M2709.2,365.3c0.8-2.9,1.6-6.6,2.3-10.9c0.7-4.3,1.3-9.7,1.9-16.2c0.6-6.4,1-14.1,1.3-23
		c0.3-8.9,0.4-19.3,0.4-31.2V147.2c0-11.9-0.1-22.3-0.4-31.2c-0.3-8.9-0.7-16.6-1.3-23.1c-0.6-6.5-1.2-11.9-1.9-16.3
		c-0.7-4.3-1.5-8-2.3-10.9v-0.8h50.2v0.8c-0.8,2.9-1.6,6.6-2.4,10.9c-0.8,4.3-1.4,9.8-1.9,16.3c-0.5,6.5-0.9,14.2-1.3,23.1
		c-0.3,8.9-0.5,19.3-0.5,31.2V284c0,11.9,0.2,22.3,0.5,31.2c0.4,8.9,0.8,16.6,1.3,23c0.5,6.4,1.1,11.8,1.9,16.2
		c0.8,4.3,1.6,8,2.4,10.9v0.8h-50.2V365.3z"/>
	<path fill="#FFFFFF" d="M3011.2,83.3c-16.5,0-31.4,0.7-44.8,2.2c-13.3,1.5-24.8,3-34.5,4.7c-11.2,2.1-21.2,4.4-30,6.9l6.1-34
		c1.7,0.1,4.2,0.3,7.6,0.4c3.4,0.1,7.1,0.3,11.2,0.4c4.1,0.1,8.5,0.2,13,0.3c4.6,0.1,8.9,0.1,12.9,0.2c4.1,0.1,7.7,0.1,10.8,0.2
		c3.1,0.1,5.4,0.1,6.8,0.1h120c1.4,0,3.7,0,6.8-0.1c3.1-0.1,6.7-0.1,10.8-0.2c4.1-0.1,8.4-0.1,12.9-0.2c4.6-0.1,8.9-0.2,13-0.3
		c4.1-0.1,7.9-0.3,11.2-0.4c3.4-0.1,5.9-0.3,7.6-0.4l6.1,34c-9-2.5-19-4.8-30.3-6.9c-9.7-1.7-21.1-3.3-34.5-4.7
		c-13.3-1.5-28.2-2.2-44.8-2.2V284c0,11.9,0.2,22.3,0.5,31.2c0.4,8.9,0.8,16.6,1.3,23c0.5,6.4,1.1,11.8,1.9,16.2
		c0.8,4.3,1.6,8,2.4,10.9v0.8h-50.2v-0.8c0.8-2.9,1.6-6.6,2.3-10.9c0.7-4.3,1.3-9.7,1.9-16.2c0.6-6.4,1-14.1,1.3-23
		c0.3-8.9,0.4-19.3,0.4-31.2V83.3z"/>
	<path fill="#FFFFFF" d="M3351.7,64.6c17.3-0.1,33.2-0.3,47.6-0.5c14.4-0.2,26.8-0.5,37-0.9c10.2-0.4,17.2-1,20.8-1.7l-10.3,27.9
		c-4.6-1.3-10-2.4-16.2-3.4c-5.3-0.8-11.8-1.6-19.4-2.4c-7.6-0.8-16.4-1.2-26.4-1.2c-3.4,0-7.4,0.1-12.1,0.3
		c-4.7,0.2-9.2,0.5-13.6,0.7c-5,0.3-10.2,0.6-15.3,0.8v114.7c14.4-0.1,27.4-0.6,39.1-1.3c11.6-0.7,21.5-1.4,29.6-2.1
		c9.5-0.8,17.9-1.8,25.2-2.9l-6.5,30.5c-9.7-1.3-19.5-2.4-29.6-3.6c-8.7-1-18.1-1.9-28.4-2.6c-10.2-0.8-20-1.2-29.4-1.2v131.7
		c16.5,0,31.7-0.7,45.6-2.1c13.9-1.4,26-3,36.3-4.8c12-2,23-4.3,33-6.9l-6.1,34c-1.7-0.1-4.2-0.3-7.6-0.4c-3.4-0.1-7.1-0.3-11.2-0.4
		c-4.1-0.1-8.5-0.2-13-0.3c-4.5-0.1-8.8-0.1-12.9-0.2c-4.1-0.1-7.7-0.1-10.8-0.2c-3.2-0.1-5.4-0.1-6.8-0.1h-90.8v-0.8
		c0.8-2.9,1.6-6.6,2.4-10.9c0.8-4.3,1.4-9.7,2-16.2c0.6-6.4,1-14.1,1.3-23c0.3-8.9,0.4-19.3,0.4-31.2V147.2
		c0-11.9-0.1-22.3-0.4-31.2c-0.3-8.9-0.7-16.6-1.3-23.1c-0.6-6.5-1.2-11.9-2-16.3c-0.8-4.3-1.6-8-2.4-10.9v-0.8
		C3317,64.8,3334.4,64.8,3351.7,64.6z"/>
	<path fill="#FFFFFF" d="M3904.9,347.6c16.5,0,31.7-0.7,45.6-2.1c13.9-1.4,26-3,36.3-4.8c12-2,23-4.3,33-6.9l-6.1,34
		c-1.7-0.1-4.2-0.3-7.6-0.4c-3.4-0.1-7.1-0.3-11.2-0.4c-4.1-0.1-8.5-0.2-13-0.3c-4.5-0.1-8.8-0.1-12.9-0.2
		c-4.1-0.1-7.7-0.1-10.8-0.2c-3.2-0.1-5.4-0.1-6.8-0.1h-90.8v-0.8c0.8-2.9,1.6-6.6,2.4-10.9c0.8-4.3,1.4-9.7,2-16.2
		c0.6-6.4,1-14.1,1.3-23c0.3-8.9,0.4-19.3,0.4-31.2V147.2c0-11.9-0.1-22.3-0.4-31.2c-0.3-8.9-0.7-16.6-1.3-23.1
		c-0.6-6.5-1.2-11.9-2-16.3c-0.8-4.3-1.6-8-2.4-10.9v-0.8h50.4v0.8c-0.8,2.9-1.6,6.6-2.4,10.9c-0.8,4.3-1.4,9.8-1.9,16.3
		c-0.5,6.5-0.9,14.2-1.3,23.1c-0.3,8.9-0.5,19.3-0.5,31.2V347.6z"/>
	<path fill="#FFFFFF" d="M4171,365.3c0.8-2.9,1.6-6.6,2.3-10.9c0.7-4.3,1.3-9.7,1.9-16.2c0.6-6.4,1-14.1,1.3-23
		c0.3-8.9,0.4-19.3,0.4-31.2V147.2c0-11.9-0.1-22.3-0.4-31.2c-0.3-8.9-0.7-16.6-1.3-23.1c-0.6-6.5-1.2-11.9-1.9-16.3
		c-0.7-4.3-1.5-8-2.3-10.9v-0.8h50.2v0.8c-0.8,2.9-1.6,6.6-2.4,10.9c-0.8,4.3-1.4,9.8-1.9,16.3c-0.5,6.5-0.9,14.2-1.3,23.1
		c-0.3,8.9-0.5,19.3-0.5,31.2V284c0,11.9,0.2,22.3,0.5,31.2c0.4,8.9,0.8,16.6,1.3,23c0.5,6.4,1.1,11.8,1.9,16.2
		c0.8,4.3,1.6,8,2.4,10.9v0.8H4171V365.3z"/>
	<path fill="#FFFFFF" d="M4405.5,64.8l216.4,230.3V147.2c0-11.9-0.1-22.3-0.4-31.2c-0.3-8.9-0.7-16.6-1.3-23.1
		c-0.6-6.5-1.2-11.9-2-16.3c-0.8-4.3-1.6-8-2.4-10.9v-0.8h37.4v0.8c-0.8,2.9-1.6,6.6-2.3,10.9c-0.7,4.3-1.3,9.8-1.9,16.3
		c-0.6,6.5-1,14.2-1.3,23.1c-0.3,8.9-0.4,19.3-0.4,31.2v223.1h-7.4l-216.4-230.1V284c0,11.9,0.1,22.3,0.4,31.2
		c0.3,8.9,0.7,16.6,1.3,23c0.6,6.4,1.2,11.8,1.9,16.2c0.7,4.3,1.5,8,2.3,10.9v0.8h-37.4v-0.8c0.8-2.9,1.6-6.6,2.4-10.9
		c0.8-4.3,1.4-9.7,2-16.2c0.6-6.4,1-14.1,1.3-23c0.3-8.9,0.4-19.3,0.4-31.2V147.2c0-11.9-0.1-22.3-0.4-31.2
		c-0.3-8.9-0.7-16.6-1.3-23.1c-0.6-6.5-1.2-11.9-2-16.3c-0.8-4.3-1.6-8-2.4-10.9v-0.8H4405.5z"/>
	<path fill="#FFFFFF" d="M4874.4,64.6c17.3-0.1,33.2-0.3,47.6-0.5c14.4-0.2,26.8-0.5,37-0.9s17.2-1,20.8-1.7l-10.3,27.9
		c-4.6-1.3-10-2.4-16.2-3.4c-5.3-0.8-11.8-1.6-19.4-2.4c-7.6-0.8-16.4-1.2-26.4-1.2c-3.4,0-7.4,0.1-12.1,0.3
		c-4.7,0.2-9.2,0.5-13.6,0.7c-5,0.3-10.2,0.6-15.3,0.8v114.7c14.4-0.1,27.4-0.6,39.1-1.3c11.6-0.7,21.5-1.4,29.6-2.1
		c9.5-0.8,17.9-1.8,25.2-2.9l-6.5,30.5c-9.7-1.3-19.5-2.4-29.6-3.6c-8.7-1-18.1-1.9-28.4-2.6c-10.2-0.8-20-1.2-29.4-1.2v131.7
		c16.5,0,31.7-0.7,45.6-2.1c13.9-1.4,26-3,36.3-4.8c12-2,23-4.3,33-6.9l-6.1,34c-1.7-0.1-4.2-0.3-7.6-0.4c-3.4-0.1-7.1-0.3-11.2-0.4
		c-4.1-0.1-8.5-0.2-13-0.3c-4.5-0.1-8.8-0.1-12.9-0.2c-4.1-0.1-7.7-0.1-10.8-0.2c-3.2-0.1-5.4-0.1-6.8-0.1h-90.8v-0.8
		c0.8-2.9,1.6-6.6,2.4-10.9c0.8-4.3,1.4-9.7,2-16.2c0.6-6.4,1-14.1,1.3-23c0.3-8.9,0.4-19.3,0.4-31.2V147.2
		c0-11.9-0.1-22.3-0.4-31.2c-0.3-8.9-0.7-16.6-1.3-23.1c-0.6-6.5-1.2-11.9-2-16.3c-0.8-4.3-1.6-8-2.4-10.9v-0.8
		C4839.7,64.8,4857.1,64.8,4874.4,64.6z"/>
</g>
</svg>
